<svg width="99" height="16" viewBox="0 0 99 16" fill="none" xmlns="http://www.w3.org/2000/svg">
<path fill-rule="evenodd" clip-rule="evenodd" d="M26.1722 0C25.8239 0 25.5023 0.186431 25.3292 0.488644L16.7016 15.5519C18.2992 16.4743 20.3421 15.9269 21.2645 14.3293L29.1589 0.655852C29.3272 0.364362 29.1168 0 28.7802 0H26.1722ZM5.76029 1.3704C5.94586 0.999251 6.53969 0.256958 7.43044 0.256958C8.16522 0.256958 8.72194 0.780921 8.91503 0.999251C9.42932 1.58075 9.58845 1.56086 10.2579 1.47718C10.6132 1.43277 11.1122 1.3704 11.8842 1.3704C13.6317 1.3704 14.2649 1.72752 14.9102 2.09146L14.9479 2.11269L9.6498 11.2058C9.59461 11.0862 9.53548 10.9513 9.47236 10.8073C9.11105 9.98294 8.61907 8.86051 7.98716 8.60775C7.47951 8.40469 7.13851 8.70157 6.7818 9.01212C6.48653 9.26918 6.1805 9.53561 5.76029 9.53561C5.2705 9.53561 4.98754 9.27707 4.72036 9.03294C4.48138 8.81458 4.25502 8.60775 3.90456 8.60775C3.53341 8.60775 3.34784 8.79332 3.13907 9.00209C2.9303 9.21086 2.69833 9.44283 2.2344 9.53561C1.49708 9.68308 0.876943 8.54156 0.467101 7.78715C0.361184 7.59218 0.269312 7.42307 0.193092 7.30874C-0.178054 6.75202 0.0075191 6.1953 0.564238 5.63858C1.12096 5.08186 1.30653 4.89629 1.30653 4.154C1.30653 3.4117 2.60554 2.48384 3.53341 1.92712C4.2757 1.48174 5.32728 1.3704 5.76029 1.3704ZM4.8249 4.02144L2.59802 5.08186C2.67225 4.86978 2.82071 4.40319 2.82071 4.23352C2.82071 4.02144 2.82071 3.59727 3.48878 3.59727C4.02323 3.59727 4.60221 3.88005 4.8249 4.02144ZM16.5812 1.92712C15.9798 1.92712 15.4239 2.24801 15.1232 2.76892L10.0211 11.6062L12.9139 13.2763L18.0371 4.45634C18.689 3.33395 17.8792 1.92712 16.5812 1.92712ZM19.8877 2.15525C20.3669 1.3251 21.2526 0.813679 22.2111 0.813679C23.2442 0.813678 23.8894 1.93242 23.3722 2.82664L16.2541 15.1321L13.3613 13.4619L19.8877 2.15525Z" fill="#2BA55D"/>
<path d="M35.9605 14.4C35.0467 14.4 34.3279 14.2201 33.8043 13.8602C33.2909 13.5004 32.9315 13.0121 32.7261 12.3952C32.5208 11.768 32.4181 11.0484 32.4181 10.2362V5.77928C32.4181 4.92595 32.5208 4.18571 32.7261 3.55856C32.9315 2.93141 33.2909 2.4482 33.8043 2.10892C34.3279 1.76964 35.0467 1.60001 35.9605 1.60001C36.823 1.60001 37.4956 1.74908 37.9782 2.04724C38.471 2.33511 38.8202 2.75149 39.0255 3.29639C39.2309 3.84129 39.3336 4.47358 39.3336 5.19326V6.24193H37.1465V5.16242C37.1465 4.81286 37.1259 4.49414 37.0849 4.20627C37.0541 3.9184 36.9565 3.69222 36.7922 3.52772C36.6382 3.35294 36.3661 3.26555 35.9759 3.26555C35.5858 3.26555 35.2983 3.35808 35.1134 3.54314C34.9389 3.71792 34.8259 3.95952 34.7746 4.26796C34.7232 4.56611 34.6976 4.90539 34.6976 5.28579V10.7142C34.6976 11.1666 34.7335 11.5419 34.8054 11.84C34.8773 12.1279 35.0056 12.3489 35.1904 12.5031C35.3855 12.6471 35.6474 12.719 35.9759 12.719C36.3558 12.719 36.6228 12.6317 36.7768 12.4569C36.9411 12.2718 37.0438 12.0302 37.0849 11.7321C37.1259 11.4339 37.1465 11.0998 37.1465 10.7296V9.60386H39.3336V10.6063C39.3336 11.3465 39.236 12.0045 39.0409 12.5802C38.8458 13.1457 38.5018 13.5929 38.009 13.9219C37.5264 14.2406 36.8436 14.4 35.9605 14.4Z" fill="#FCFCFC"/>
<path d="M44.309 14.4C43.4259 14.4 42.7226 14.2355 42.1989 13.9065C41.6752 13.5775 41.3005 13.1046 41.0746 12.4877C40.8487 11.8708 40.7357 11.1409 40.7357 10.2978V5.62507C40.7357 4.78201 40.8487 4.06234 41.0746 3.46603C41.3005 2.85944 41.6752 2.39679 42.1989 2.07808C42.7226 1.75936 43.4259 1.60001 44.309 1.60001C45.2126 1.60001 45.921 1.75936 46.4344 2.07808C46.9581 2.39679 47.3329 2.85944 47.5588 3.46603C47.7949 4.06234 47.913 4.78201 47.913 5.62507V10.3133C47.913 11.146 47.7949 11.8708 47.5588 12.4877C47.3329 13.0943 46.9581 13.5672 46.4344 13.9065C45.921 14.2355 45.2126 14.4 44.309 14.4ZM44.309 12.719C44.6889 12.719 44.9661 12.6368 45.1407 12.4723C45.3255 12.3078 45.4487 12.0816 45.5103 11.7937C45.5719 11.5059 45.6027 11.1923 45.6027 10.853V5.10073C45.6027 4.75117 45.5719 4.4376 45.5103 4.16001C45.4487 3.88242 45.3255 3.66651 45.1407 3.5123C44.9661 3.3478 44.6889 3.26555 44.309 3.26555C43.9496 3.26555 43.6775 3.3478 43.4927 3.5123C43.3079 3.66651 43.1846 3.88242 43.123 4.16001C43.0614 4.4376 43.0306 4.75117 43.0306 5.10073V10.853C43.0306 11.1923 43.0563 11.5059 43.1076 11.7937C43.1692 12.0816 43.2924 12.3078 43.4773 12.4723C43.6621 12.6368 43.9393 12.719 44.309 12.719Z" fill="#FCFCFC"/>
<path d="M49.6608 14.2304V1.7388H51.9095V14.2304H49.6608Z" fill="#FCFCFC"/>
<path d="M53.8407 14.2304V1.7388H55.4271L58.4613 8.86362V1.7388H60.3403V14.2304H58.8309L55.7814 6.76627V14.2304H53.8407Z" fill="#FCFCFC"/>
<path d="M63.4811 14.2304V3.41977H61.4943V1.7388H67.7166V3.41977H65.7606V14.2304H63.4811Z" fill="#FCFCFC"/>
<path d="M72.1798 14.4C71.2968 14.4 70.5934 14.2355 70.0698 13.9065C69.5461 13.5775 69.1713 13.1046 68.9454 12.4877C68.7195 11.8708 68.6066 11.1409 68.6066 10.2978V5.62507C68.6066 4.78201 68.7195 4.06234 68.9454 3.46603C69.1713 2.85944 69.5461 2.39679 70.0698 2.07808C70.5934 1.75936 71.2968 1.60001 72.1798 1.60001C73.0834 1.60001 73.7919 1.75936 74.3053 2.07808C74.829 2.39679 75.2037 2.85944 75.4296 3.46603C75.6658 4.06234 75.7839 4.78201 75.7839 5.62507V10.3133C75.7839 11.146 75.6658 11.8708 75.4296 12.4877C75.2037 13.0943 74.829 13.5672 74.3053 13.9065C73.7919 14.2355 73.0834 14.4 72.1798 14.4ZM72.1798 12.719C72.5598 12.719 72.837 12.6368 73.0115 12.4723C73.1964 12.3078 73.3196 12.0816 73.3812 11.7937C73.4428 11.5059 73.4736 11.1923 73.4736 10.853V5.10073C73.4736 4.75117 73.4428 4.4376 73.3812 4.16001C73.3196 3.88242 73.1964 3.66651 73.0115 3.5123C72.837 3.3478 72.5598 3.26555 72.1798 3.26555C71.8205 3.26555 71.5484 3.3478 71.3635 3.5123C71.1787 3.66651 71.0555 3.88242 70.9939 4.16001C70.9323 4.4376 70.9015 4.75117 70.9015 5.10073V10.853C70.9015 11.1923 70.9272 11.5059 70.9785 11.7937C71.0401 12.0816 71.1633 12.3078 71.3481 12.4723C71.533 12.6368 71.8102 12.719 72.1798 12.719Z" fill="#FCFCFC"/>
<path d="M80.8585 14.4C79.9754 14.4 79.2721 14.2355 78.7484 13.9065C78.2247 13.5775 77.85 13.1046 77.6241 12.4877C77.3982 11.8708 77.2852 11.1409 77.2852 10.2978V5.62507C77.2852 4.78201 77.3982 4.06234 77.6241 3.46603C77.85 2.85944 78.2247 2.39679 78.7484 2.07808C79.2721 1.75936 79.9754 1.60001 80.8585 1.60001C81.762 1.60001 82.4705 1.75936 82.9839 2.07808C83.5076 2.39679 83.8824 2.85944 84.1083 3.46603C84.3444 4.06234 84.4625 4.78201 84.4625 5.62507V10.3133C84.4625 11.146 84.3444 11.8708 84.1083 12.4877C83.8824 13.0943 83.5076 13.5672 82.9839 13.9065C82.4705 14.2355 81.762 14.4 80.8585 14.4ZM80.8585 12.719C81.2384 12.719 81.5156 12.6368 81.6902 12.4723C81.875 12.3078 81.9982 12.0816 82.0598 11.7937C82.1214 11.5059 82.1522 11.1923 82.1522 10.853V5.10073C82.1522 4.75117 82.1214 4.4376 82.0598 4.16001C81.9982 3.88242 81.875 3.66651 81.6902 3.5123C81.5156 3.3478 81.2384 3.26555 80.8585 3.26555C80.4991 3.26555 80.227 3.3478 80.0422 3.5123C79.8573 3.66651 79.7341 3.88242 79.6725 4.16001C79.6109 4.4376 79.5801 4.75117 79.5801 5.10073V10.853C79.5801 11.1923 79.6058 11.5059 79.6571 11.7937C79.7187 12.0816 79.8419 12.3078 80.0268 12.4723C80.2116 12.6368 80.4888 12.719 80.8585 12.719Z" fill="#FCFCFC"/>
<path d="M86.1487 14.2304V1.7388H88.4281V12.6574H91.4469V14.2304H86.1487Z" fill="#FCFCFC"/>
<path d="M95.7131 14.4C94.9636 14.4 94.3372 14.2561 93.8341 13.9682C93.331 13.67 92.951 13.2382 92.6944 12.6728C92.4377 12.1073 92.2939 11.4133 92.2631 10.5908L94.2191 10.2053C94.2397 10.6885 94.2962 11.1152 94.3886 11.4853C94.4912 11.8554 94.6401 12.1433 94.8352 12.3489C95.0406 12.5443 95.3075 12.6419 95.6361 12.6419C96.0058 12.6419 96.2676 12.534 96.4216 12.3181C96.5756 12.0919 96.6526 11.8092 96.6526 11.4699C96.6526 10.925 96.5294 10.4778 96.283 10.1282C96.0366 9.77864 95.708 9.42908 95.2973 9.07952L93.7263 7.69157C93.2848 7.31117 92.9305 6.88964 92.6636 6.42699C92.4069 5.95406 92.2785 5.37318 92.2785 4.68434C92.2785 3.69736 92.566 2.93655 93.141 2.40193C93.716 1.86732 94.5015 1.60001 95.4975 1.60001C96.0828 1.60001 96.5705 1.69254 96.9607 1.8776C97.3509 2.05238 97.6589 2.29912 97.8848 2.61784C98.121 2.93655 98.2955 3.30153 98.4085 3.71278C98.5214 4.11374 98.5933 4.54041 98.6241 4.99278L96.6835 5.33205C96.6629 4.94137 96.6167 4.59181 96.5448 4.28338C96.4832 3.97495 96.3651 3.73334 96.1906 3.55856C96.0263 3.38378 95.7799 3.29639 95.4513 3.29639C95.1125 3.29639 94.8506 3.40948 94.6658 3.63567C94.4912 3.85157 94.404 4.12402 94.404 4.45302C94.404 4.87454 94.4912 5.2241 94.6658 5.50169C94.8404 5.769 95.0919 6.04659 95.4205 6.33446L96.9761 7.70699C97.4895 8.1388 97.9259 8.64772 98.2853 9.23374C98.6549 9.80948 98.8397 10.5086 98.8397 11.3311C98.8397 11.9274 98.7062 12.4569 98.4393 12.9195C98.1826 13.3822 97.8181 13.7472 97.3457 14.0145C96.8837 14.2715 96.3395 14.4 95.7131 14.4Z" fill="#FCFCFC"/>
</svg>
