<svg width="142" height="27" viewBox="0 0 142 27" fill="none" xmlns="http://www.w3.org/2000/svg">
<path fill-rule="evenodd" clip-rule="evenodd" d="M44.7935 0C44.1942 0 43.6391 0.318405 43.3397 0.833911L28.5808 26.2439C31.3148 27.8004 34.8198 26.8614 36.4093 24.1464L49.9008 1.10304C50.1883 0.611947 49.8338 0 49.2618 0H44.7935ZM9.85739 2.31254C10.175 1.68624 11.1912 0.433617 12.7155 0.433617C13.9729 0.433617 14.9256 1.3178 15.256 1.68624C16.1361 2.66752 16.4084 2.63395 17.5541 2.49274C18.162 2.4178 19.0159 2.31254 20.3371 2.31254C23.3275 2.31254 24.4111 2.91519 25.5154 3.52933L25.5798 3.56516L16.5134 18.9097C16.419 18.708 16.3178 18.4803 16.2098 18.2374L16.2098 18.2373C15.5914 16.8462 14.7495 14.9521 13.6682 14.5256C12.7995 14.1829 12.2159 14.6839 11.6055 15.2079C11.1002 15.6417 10.5765 16.0913 9.85739 16.0913C9.01923 16.0913 8.53502 15.6551 8.0778 15.2431C7.66885 14.8746 7.28148 14.5256 6.68174 14.5256C6.04661 14.5256 5.72905 14.8387 5.37179 15.191C5.01452 15.5433 4.61757 15.9348 3.82365 16.0913C2.56191 16.3402 1.50068 14.4139 0.799335 13.1408C0.618082 12.8118 0.460864 12.5264 0.330433 12.3335C-0.304698 11.394 0.0128672 10.4546 0.965563 9.5151C1.91826 8.57564 2.23582 8.26248 2.23582 7.00987C2.23582 5.75725 4.45878 4.19147 6.04661 3.25201C7.31687 2.50044 9.11641 2.31254 9.85739 2.31254ZM8.2567 6.78618L4.44592 8.57564C4.57294 8.21775 4.82699 7.43039 4.82699 7.14407C4.82699 6.78618 4.82699 6.0704 5.97023 6.0704C6.88482 6.0704 7.87562 6.54759 8.2567 6.78618ZM27.8763 3.25201C27.1559 3.25201 26.4882 3.63348 26.1261 4.25197L17.1487 19.5854L22.0991 22.4038L31.6229 6.23559C32.4041 4.90927 31.447 3.25201 29.8997 3.25201L27.8763 3.25201ZM34.1875 3.37334C34.9117 2.13618 36.2472 1.37308 37.6882 1.37308L38.5153 1.37308C40.061 1.37308 41.0184 3.02721 40.2403 4.35353L27.8152 25.5354L22.8648 22.717L34.1875 3.37334Z" fill="#2BA55D"/>
<path d="M56.7999 23C55.5617 23 54.5878 22.747 53.8782 22.241C53.1826 21.7349 52.6956 21.0482 52.4174 20.1807C52.1391 19.2988 52 18.2867 52 17.1446V10.8771C52 9.67711 52.1391 8.63614 52.4174 7.75422C52.6956 6.87229 53.1826 6.19277 53.8782 5.71566C54.5878 5.23855 55.5617 5 56.7999 5C57.9686 5 58.8799 5.20964 59.5338 5.62892C60.2016 6.03374 60.6747 6.61928 60.9529 7.38554C61.2312 8.15181 61.3703 9.04096 61.3703 10.053V11.5277H58.4069V10.0096C58.4069 9.51807 58.3791 9.06988 58.3234 8.66506C58.2817 8.26024 58.1495 7.94217 57.9269 7.71084C57.7182 7.46506 57.3495 7.34217 56.8208 7.34217C56.2921 7.34217 55.9026 7.47229 55.6521 7.73253C55.4156 7.97831 55.2626 8.31807 55.193 8.75181C55.1234 9.17108 55.0887 9.64819 55.0887 10.1831V17.8169C55.0887 18.453 55.1374 18.9807 55.2347 19.4C55.3321 19.8048 55.506 20.1157 55.7565 20.3325C56.0208 20.5349 56.3756 20.6361 56.8208 20.6361C57.3356 20.6361 57.6973 20.5133 57.906 20.2675C58.1286 20.0072 58.2677 19.6675 58.3234 19.2482C58.3791 18.8289 58.4069 18.359 58.4069 17.8386V16.2554H61.3703V17.6651C61.3703 18.706 61.2381 19.6313 60.9738 20.441C60.7095 21.2361 60.2434 21.8651 59.5756 22.3277C58.9217 22.7759 57.9964 23 56.7999 23Z" fill="black"/>
<path d="M68.1119 23C66.9154 23 65.9624 22.7687 65.2528 22.306C64.5433 21.8434 64.0354 21.1783 63.7294 20.3108C63.4233 19.4434 63.2702 18.4169 63.2702 17.2313V10.6602C63.2702 9.4747 63.4233 8.46265 63.7294 7.6241C64.0354 6.77108 64.5433 6.12048 65.2528 5.67229C65.9624 5.2241 66.9154 5 68.1119 5C69.3362 5 70.2962 5.2241 70.9919 5.67229C71.7014 6.12048 72.2093 6.77108 72.5153 7.6241C72.8353 8.46265 72.9953 9.4747 72.9953 10.6602V17.253C72.9953 18.4241 72.8353 19.4434 72.5153 20.3108C72.2093 21.1639 71.7014 21.8289 70.9919 22.306C70.2962 22.7687 69.3362 23 68.1119 23ZM68.1119 20.6361C68.6267 20.6361 69.0023 20.5205 69.2389 20.2892C69.4893 20.0578 69.6562 19.7398 69.7397 19.3349C69.8232 18.9301 69.8649 18.4892 69.8649 18.012V9.92289C69.8649 9.43133 69.8232 8.99036 69.7397 8.6C69.6562 8.20964 69.4893 7.90602 69.2389 7.68916C69.0023 7.45783 68.6267 7.34217 68.1119 7.34217C67.625 7.34217 67.2563 7.45783 67.0058 7.68916C66.7554 7.90602 66.5885 8.20964 66.505 8.6C66.4215 8.99036 66.3798 9.43133 66.3798 9.92289V18.012C66.3798 18.4892 66.4145 18.9301 66.4841 19.3349C66.5676 19.7398 66.7345 20.0578 66.985 20.2892C67.2354 20.5205 67.6111 20.6361 68.1119 20.6361Z" fill="black"/>
<path d="M75.3635 22.7614V5.19518H78.4104V22.7614H75.3635Z" fill="black"/>
<path d="M81.0272 22.7614V5.19518H83.1768L87.288 15.2145V5.19518H89.8341V22.7614H87.7889L83.6568 12.2651V22.7614H81.0272Z" fill="black"/>
<path d="M94.0898 22.7614V7.55904H91.3977V5.19518H99.8289V7.55904H97.1785V22.7614H94.0898Z" fill="black"/>
<path d="M105.876 23C104.68 23 103.727 22.7687 103.017 22.306C102.308 21.8434 101.8 21.1783 101.494 20.3108C101.188 19.4434 101.035 18.4169 101.035 17.2313V10.6602C101.035 9.4747 101.188 8.46265 101.494 7.6241C101.8 6.77108 102.308 6.12048 103.017 5.67229C103.727 5.2241 104.68 5 105.876 5C107.101 5 108.061 5.2241 108.756 5.67229C109.466 6.12048 109.974 6.77108 110.28 7.6241C110.6 8.46265 110.76 9.4747 110.76 10.6602V17.253C110.76 18.4241 110.6 19.4434 110.28 20.3108C109.974 21.1639 109.466 21.8289 108.756 22.306C108.061 22.7687 107.101 23 105.876 23ZM105.876 20.6361C106.391 20.6361 106.767 20.5205 107.003 20.2892C107.254 20.0578 107.421 19.7398 107.504 19.3349C107.588 18.9301 107.629 18.4892 107.629 18.012V9.92289C107.629 9.43133 107.588 8.99036 107.504 8.6C107.421 8.20964 107.254 7.90602 107.003 7.68916C106.767 7.45783 106.391 7.34217 105.876 7.34217C105.389 7.34217 105.021 7.45783 104.77 7.68916C104.52 7.90602 104.353 8.20964 104.269 8.6C104.186 8.99036 104.144 9.43133 104.144 9.92289V18.012C104.144 18.4892 104.179 18.9301 104.249 19.3349C104.332 19.7398 104.499 20.0578 104.749 20.2892C105 20.5205 105.376 20.6361 105.876 20.6361Z" fill="black"/>
<path d="M117.636 23C116.439 23 115.486 22.7687 114.777 22.306C114.067 21.8434 113.559 21.1783 113.253 20.3108C112.947 19.4434 112.794 18.4169 112.794 17.2313V10.6602C112.794 9.4747 112.947 8.46265 113.253 7.6241C113.559 6.77108 114.067 6.12048 114.777 5.67229C115.486 5.2241 116.439 5 117.636 5C118.86 5 119.82 5.2241 120.516 5.67229C121.225 6.12048 121.733 6.77108 122.039 7.6241C122.359 8.46265 122.519 9.4747 122.519 10.6602V17.253C122.519 18.4241 122.359 19.4434 122.039 20.3108C121.733 21.1639 121.225 21.8289 120.516 22.306C119.82 22.7687 118.86 23 117.636 23ZM117.636 20.6361C118.151 20.6361 118.526 20.5205 118.763 20.2892C119.013 20.0578 119.18 19.7398 119.264 19.3349C119.347 18.9301 119.389 18.4892 119.389 18.012V9.92289C119.389 9.43133 119.347 8.99036 119.264 8.6C119.18 8.20964 119.013 7.90602 118.763 7.68916C118.526 7.45783 118.151 7.34217 117.636 7.34217C117.149 7.34217 116.78 7.45783 116.53 7.68916C116.279 7.90602 116.112 8.20964 116.029 8.6C115.945 8.99036 115.904 9.43133 115.904 9.92289V18.012C115.904 18.4892 115.938 18.9301 116.008 19.3349C116.091 19.7398 116.258 20.0578 116.509 20.2892C116.759 20.5205 117.135 20.6361 117.636 20.6361Z" fill="black"/>
<path d="M124.804 22.7614V5.19518H127.893V20.5494H131.983V22.7614H124.804Z" fill="black"/>
<path d="M137.764 23C136.748 23 135.899 22.7976 135.217 22.3928C134.536 21.9735 134.021 21.3663 133.673 20.5711C133.325 19.7759 133.131 18.8 133.089 17.6434L135.739 17.1012C135.767 17.7807 135.844 18.3807 135.969 18.9012C136.108 19.4217 136.31 19.8265 136.574 20.1157C136.852 20.3904 137.214 20.5277 137.659 20.5277C138.16 20.5277 138.515 20.3759 138.724 20.0723C138.932 19.7542 139.037 19.3566 139.037 18.8795C139.037 18.1133 138.87 17.4843 138.536 16.9928C138.202 16.5012 137.757 16.0096 137.2 15.5181L135.071 13.5663C134.473 13.0313 133.993 12.4386 133.631 11.788C133.284 11.1229 133.11 10.306 133.11 9.33735C133.11 7.9494 133.499 6.87952 134.278 6.12771C135.057 5.3759 136.122 5 137.471 5C138.264 5 138.925 5.13012 139.454 5.39036C139.983 5.63614 140.4 5.98313 140.706 6.43133C141.026 6.87952 141.263 7.39277 141.416 7.97108C141.569 8.53494 141.666 9.13494 141.708 9.77108L139.078 10.2482C139.05 9.6988 138.988 9.20723 138.89 8.77349C138.807 8.33976 138.647 8 138.41 7.75422C138.188 7.50843 137.854 7.38554 137.409 7.38554C136.95 7.38554 136.595 7.54458 136.344 7.86265C136.108 8.16627 135.99 8.5494 135.99 9.01205C135.99 9.60482 136.108 10.0964 136.344 10.4867C136.581 10.8627 136.922 11.253 137.367 11.6578L139.475 13.588C140.17 14.1952 140.762 14.9108 141.249 15.7349C141.75 16.5446 142 17.5277 142 18.6843C142 19.5229 141.819 20.2675 141.457 20.9181C141.11 21.5687 140.616 22.0819 139.976 22.4578C139.35 22.8193 138.612 23 137.764 23Z" fill="black"/>
</svg>
