<svg width="51" height="27" viewBox="0 0 51 27" fill="none" xmlns="http://www.w3.org/2000/svg">
<path fill-rule="evenodd" clip-rule="evenodd" d="M44.7935 0C44.1942 0 43.6391 0.318405 43.3397 0.833911L28.5808 26.2439C31.3148 27.8004 34.8198 26.8614 36.4093 24.1464L49.9008 1.10304C50.1883 0.611947 49.8338 0 49.2618 0H44.7935ZM9.85739 2.31254C10.175 1.68624 11.1912 0.433617 12.7155 0.433617C13.9729 0.433617 14.9256 1.3178 15.256 1.68624C16.1361 2.66752 16.4084 2.63395 17.5541 2.49274C18.162 2.4178 19.0159 2.31254 20.337 2.31254C23.3275 2.31254 24.4111 2.91519 25.5154 3.52933L25.5798 3.56516L16.5134 18.9097C16.419 18.708 16.3178 18.4803 16.2098 18.2374L16.2098 18.2373C15.5914 16.8462 14.7495 14.9521 13.6682 14.5256C12.7994 14.1829 12.2159 14.6839 11.6055 15.2079C11.1002 15.6417 10.5765 16.0913 9.85739 16.0913C9.01923 16.0913 8.53502 15.6551 8.07779 15.2431C7.66884 14.8746 7.28147 14.5256 6.68174 14.5256C6.04661 14.5256 5.72904 14.8387 5.37178 15.191C5.01452 15.5433 4.61756 15.9348 3.82365 16.0913C2.5619 16.3402 1.50068 14.4139 0.79933 13.1408C0.618076 12.8118 0.460859 12.5264 0.330427 12.3335C-0.304704 11.394 0.0128615 10.4546 0.965558 9.5151C1.91825 8.57564 2.23582 8.26248 2.23582 7.00987C2.23582 5.75725 4.45878 4.19147 6.0466 3.25201C7.31686 2.50044 9.1164 2.31254 9.85739 2.31254ZM8.25669 6.78618L4.44591 8.57564C4.57294 8.21775 4.82699 7.43039 4.82699 7.14407C4.82699 6.78618 4.82699 6.0704 5.97022 6.0704C6.88481 6.0704 7.87562 6.54759 8.25669 6.78618ZM27.8763 3.25201C27.1559 3.25201 26.4882 3.63348 26.1261 4.25197L17.1487 19.5854L22.0991 22.4038L31.6229 6.23559C32.4041 4.90927 31.447 3.25201 29.8997 3.25201L27.8763 3.25201ZM34.1875 3.37334C34.9117 2.13618 36.2472 1.37308 37.6882 1.37308L38.5153 1.37308C40.061 1.37308 41.0184 3.02721 40.2403 4.35353L27.8152 25.5354L22.8648 22.717L34.1875 3.37334Z" fill="#2BA55D"/>
</svg>
