<svg width="101" height="20" viewBox="0 0 101 20" fill="none" xmlns="http://www.w3.org/2000/svg">
<path d="M5.94086 19.6C4.57009 19.6 3.49195 19.3301 2.70646 18.7904C1.93636 18.2506 1.39729 17.5181 1.08925 16.5928C0.781216 15.652 0.627197 14.5725 0.627197 13.3542V6.66891C0.627197 5.38891 0.781216 4.27855 1.08925 3.33783C1.39729 2.3971 1.93636 1.67228 2.70646 1.16337C3.49195 0.654452 4.57009 0.399994 5.94086 0.399994C7.23462 0.399994 8.24345 0.623609 8.96734 1.07084C9.70663 1.50265 10.2303 2.12722 10.5383 2.94457C10.8464 3.76192 11.0004 4.71036 11.0004 5.78987V7.36289H7.71978V5.74361C7.71978 5.21927 7.68898 4.7412 7.62737 4.30939C7.58117 3.87758 7.43485 3.53831 7.18842 3.29156C6.95739 3.02939 6.54924 2.89831 5.96396 2.89831C5.37869 2.89831 4.94744 3.0371 4.6702 3.31469C4.40837 3.57686 4.23895 3.93927 4.16194 4.40192C4.08493 4.84915 4.04642 5.35807 4.04642 5.92867V14.0713C4.04642 14.7499 4.10033 15.3128 4.20814 15.76C4.31596 16.1918 4.50848 16.5234 4.78572 16.7547C5.07835 16.9706 5.4711 17.0785 5.96396 17.0785C6.53383 17.0785 6.93428 16.9475 7.16531 16.6853C7.41174 16.4077 7.56576 16.0453 7.62737 15.5981C7.68898 15.1508 7.71978 14.6496 7.71978 14.0945V12.4058H11.0004V13.9094C11.0004 15.0198 10.8541 16.0067 10.5614 16.8704C10.2688 17.7185 9.75284 18.3894 9.01354 18.8829C8.28965 19.361 7.26543 19.6 5.94086 19.6Z" fill="#000000"/>
<path d="M18.4635 19.6C17.139 19.6 16.0839 19.3532 15.2984 18.8598C14.5129 18.3663 13.9508 17.6569 13.6119 16.7316C13.2731 15.8063 13.1037 14.7113 13.1037 13.4467V6.43758C13.1037 5.17301 13.2731 4.09349 13.6119 3.19903C13.9508 2.28915 14.5129 1.59518 15.2984 1.1171C16.0839 0.63903 17.139 0.399994 18.4635 0.399994C19.8189 0.399994 20.8816 0.63903 21.6517 1.1171C22.4372 1.59518 22.9994 2.28915 23.3382 3.19903C23.6925 4.09349 23.8696 5.17301 23.8696 6.43758V13.4699C23.8696 14.719 23.6925 15.8063 23.3382 16.7316C22.9994 17.6414 22.4372 18.3508 21.6517 18.8598C20.8816 19.3532 19.8189 19.6 18.4635 19.6ZM18.4635 17.0785C19.0334 17.0785 19.4492 16.9552 19.7111 16.7084C19.9883 16.4617 20.1731 16.1224 20.2656 15.6906C20.358 15.2588 20.4042 14.7884 20.4042 14.2795V5.65108C20.4042 5.12674 20.358 4.65638 20.2656 4.23999C20.1731 3.82361 19.9883 3.49975 19.7111 3.26843C19.4492 3.02168 19.0334 2.89831 18.4635 2.89831C17.9245 2.89831 17.5163 3.02168 17.2391 3.26843C16.9618 3.49975 16.777 3.82361 16.6846 4.23999C16.5922 4.65638 16.546 5.12674 16.546 5.65108V14.2795C16.546 14.7884 16.5845 15.2588 16.6615 15.6906C16.7539 16.1224 16.9387 16.4617 17.216 16.7084C17.4932 16.9552 17.9091 17.0785 18.4635 17.0785Z" fill="#000000"/>
<path d="M26.4912 19.3455V0.608187H29.8643V19.3455H26.4912Z" fill="#000000"/>
<path d="M32.7611 19.3455V0.608187H35.1407L39.692 11.2954V0.608187H42.5106V19.3455H40.2465L35.6721 8.14939V19.3455H32.7611Z" fill="#000000"/>
<path d="M47.2217 19.3455V3.12963H44.2415V0.608187H53.575V3.12963H50.641V19.3455H47.2217Z" fill="#000000"/>
<path d="M60.2698 19.6C58.9452 19.6 57.8902 19.3532 57.1047 18.8598C56.3192 18.3663 55.757 17.6569 55.4182 16.7316C55.0794 15.8063 54.9099 14.7113 54.9099 13.4467V6.43758C54.9099 5.17301 55.0794 4.09349 55.4182 3.19903C55.757 2.28915 56.3192 1.59518 57.1047 1.1171C57.8902 0.63903 58.9452 0.399994 60.2698 0.399994C61.6252 0.399994 62.6879 0.63903 63.458 1.1171C64.2435 1.59518 64.8057 2.28915 65.1445 3.19903C65.4988 4.09349 65.6759 5.17301 65.6759 6.43758V13.4699C65.6759 14.719 65.4988 15.8063 65.1445 16.7316C64.8057 17.6414 64.2435 18.3508 63.458 18.8598C62.6879 19.3532 61.6252 19.6 60.2698 19.6ZM60.2698 17.0785C60.8397 17.0785 61.2555 16.9552 61.5174 16.7084C61.7946 16.4617 61.9794 16.1224 62.0718 15.6906C62.1642 15.2588 62.2105 14.7884 62.2105 14.2795V5.65108C62.2105 5.12674 62.1642 4.65638 62.0718 4.23999C61.9794 3.82361 61.7946 3.49975 61.5174 3.26843C61.2555 3.02168 60.8397 2.89831 60.2698 2.89831C59.7307 2.89831 59.3226 3.02168 59.0454 3.26843C58.7681 3.49975 58.5833 3.82361 58.4909 4.23999C58.3985 4.65638 58.3523 5.12674 58.3523 5.65108V14.2795C58.3523 14.7884 58.3908 15.2588 58.4678 15.6906C58.5602 16.1224 58.745 16.4617 59.0223 16.7084C59.2995 16.9552 59.7153 17.0785 60.2698 17.0785Z" fill="#000000"/>
<path d="M73.2878 19.6C71.9632 19.6 70.9081 19.3532 70.1227 18.8598C69.3372 18.3663 68.775 17.6569 68.4361 16.7316C68.0973 15.8063 67.9279 14.7113 67.9279 13.4467V6.43758C67.9279 5.17301 68.0973 4.09349 68.4361 3.19903C68.775 2.28915 69.3372 1.59518 70.1227 1.1171C70.9081 0.63903 71.9632 0.399994 73.2878 0.399994C74.6431 0.399994 75.7058 0.63903 76.4759 1.1171C77.2614 1.59518 77.8236 2.28915 78.1625 3.19903C78.5167 4.09349 78.6938 5.17301 78.6938 6.43758V13.4699C78.6938 14.719 78.5167 15.8063 78.1625 16.7316C77.8236 17.6414 77.2614 18.3508 76.4759 18.8598C75.7058 19.3532 74.6431 19.6 73.2878 19.6ZM73.2878 17.0785C73.8576 17.0785 74.2735 16.9552 74.5353 16.7084C74.8125 16.4617 74.9974 16.1224 75.0898 15.6906C75.1822 15.2588 75.2284 14.7884 75.2284 14.2795V5.65108C75.2284 5.12674 75.1822 4.65638 75.0898 4.23999C74.9974 3.82361 74.8125 3.49975 74.5353 3.26843C74.2735 3.02168 73.8576 2.89831 73.2878 2.89831C72.7487 2.89831 72.3405 3.02168 72.0633 3.26843C71.7861 3.49975 71.6012 3.82361 71.5088 4.23999C71.4164 4.65638 71.3702 5.12674 71.3702 5.65108V14.2795C71.3702 14.7884 71.4087 15.2588 71.4857 15.6906C71.5781 16.1224 71.763 16.4617 72.0402 16.7084C72.3174 16.9552 72.7333 17.0785 73.2878 17.0785Z" fill="#000000"/>
<path d="M81.223 19.3455V0.608187H84.6423V16.986H89.1704V19.3455H81.223Z" fill="#000000"/>
<path d="M95.5698 19.6C94.4454 19.6 93.5059 19.3841 92.7512 18.9523C91.9965 18.5051 91.4266 17.8573 91.0416 17.0091C90.6565 16.161 90.4409 15.12 90.3947 13.8863L93.3288 13.3079C93.3596 14.0328 93.4443 14.6728 93.5829 15.2279C93.7369 15.7831 93.9603 16.2149 94.2529 16.5234C94.5609 16.8164 94.9614 16.9629 95.4542 16.9629C96.0087 16.9629 96.4015 16.801 96.6325 16.4771C96.8635 16.1378 96.979 15.7137 96.979 15.2048C96.979 14.3875 96.7942 13.7166 96.4246 13.1923C96.0549 12.6679 95.562 12.1436 94.946 11.6193L92.5895 9.53734C91.9272 8.96674 91.3958 8.33445 90.9954 7.64048C90.6103 6.93108 90.4178 6.05975 90.4178 5.0265C90.4178 3.54602 90.8491 2.40481 91.7116 1.60289C92.5741 0.800958 93.7523 0.399994 95.2463 0.399994C96.1242 0.399994 96.8558 0.538789 97.4411 0.81638C98.0264 1.07855 98.4884 1.44867 98.8273 1.92674C99.1815 2.40481 99.4433 2.95228 99.6128 3.56915C99.7822 4.1706 99.89 4.8106 99.9362 5.48915L97.0252 5.99807C96.9944 5.41204 96.9251 4.8877 96.8173 4.42505C96.7249 3.9624 96.5478 3.59999 96.2859 3.33783C96.0395 3.07566 95.6699 2.94457 95.177 2.94457C94.6687 2.94457 94.276 3.11421 93.9987 3.45349C93.7369 3.77734 93.606 4.18602 93.606 4.67951C93.606 5.3118 93.7369 5.83614 93.9987 6.25252C94.2606 6.65349 94.6379 7.06987 95.1308 7.50168L97.4642 9.56048C98.2343 10.2082 98.8889 10.9716 99.4279 11.8506C99.9824 12.7142 100.26 13.7629 100.26 14.9966C100.26 15.8911 100.059 16.6853 99.659 17.3793C99.2739 18.0732 98.7271 18.6207 98.0187 19.0217C97.3256 19.4072 96.5093 19.6 95.5698 19.6Z" fill="#000000"/>
</svg>
