<svg width="44" height="24" viewBox="0 0 44 24" fill="none" xmlns="http://www.w3.org/2000/svg">
<path fill-rule="evenodd" clip-rule="evenodd" d="M39.2583 0C38.7359 0 38.2535 0.279648 37.9938 0.732967L25.0523 23.3279C27.4488 24.7115 30.5132 23.8904 31.8968 21.4939L43.7383 0.983778C43.9907 0.546543 43.6752 0 43.1703 0H39.2583ZM8.64043 2.0556C8.91879 1.49888 9.80954 0.385437 11.1457 0.385437C12.2478 0.385437 13.0829 1.17138 13.3725 1.49888C14.144 2.37113 14.3827 2.34129 15.3869 2.21577C15.9198 2.14915 16.6683 2.0556 17.8263 2.0556C20.4476 2.0556 21.3974 2.59128 22.3653 3.13718L22.4218 3.16903L14.4747 16.8087C14.3919 16.6293 14.3033 16.4271 14.2086 16.2111L14.2085 16.2109C13.6666 14.9744 12.9286 13.2908 11.9807 12.9116C11.2193 12.607 10.7078 13.0523 10.1727 13.5182C9.7298 13.9038 9.27075 14.3034 8.64043 14.3034C7.90575 14.3034 7.48132 13.9156 7.08054 13.5494C6.72207 13.2219 6.38253 12.9116 5.85683 12.9116C5.30012 12.9116 5.02176 13.19 4.7086 13.5031C4.39545 13.8163 4.0475 14.1642 3.3516 14.3034C2.24562 14.5246 1.31541 12.8123 0.700651 11.6807L0.700644 11.6807L0.700629 11.6807L0.700598 11.6806C0.541744 11.3882 0.403955 11.1346 0.289638 10.9631C-0.267081 10.128 0.0112787 9.29295 0.846358 8.45787C1.68144 7.62279 1.9598 7.34443 1.9598 6.23099C1.9598 5.11755 3.90831 3.72575 5.30011 2.89067C6.41355 2.22261 7.99092 2.0556 8.64043 2.0556ZM7.23735 6.03216L3.89704 7.62279C4.00838 7.30466 4.23107 6.60479 4.23107 6.35029C4.23107 6.03216 4.23107 5.39591 5.23316 5.39591C6.03484 5.39591 6.90332 5.82008 7.23735 6.03216ZM24.5685 2.89067C23.854 2.89067 23.1937 3.27188 22.8365 3.89068L15.0316 17.4093L19.3708 19.9145L27.5141 5.89523C28.2885 4.5619 27.3266 2.89067 25.7847 2.89067H24.5685ZM29.8385 3.22087C30.553 1.98306 31.8874 1.22052 33.3167 1.22052C34.857 1.22052 35.84 2.88861 35.0687 4.22194L24.3812 22.6981L20.042 20.1929L29.8385 3.22087Z" fill="#2BA55D"/>
</svg>
